<svg width="23" height="19" viewBox="0 0 23 19" fill="none" xmlns="http://www.w3.org/2000/svg">
<path fill-rule="evenodd" clip-rule="evenodd" d="M15.412 14.24L16.999 12.772C17.0976 12.6765 17.1554 12.5466 17.1604 12.4094C17.1655 12.2722 17.1173 12.1384 17.026 12.036C16.371 11.272 16.174 10.635 16.174 10.174V4.04597C16.181 3.02097 15.201 0.969971 11.229 0.969971C7.691 0.969971 6.403 3.06997 6.114 4.46497C6.059 4.72797 6.262 4.96097 6.53 4.98497L8.62 5.17397C8.875 5.19697 9.103 5.02197 9.203 4.78697C9.463 4.17697 10.07 3.40397 11.229 3.40397C12.397 3.40397 12.806 4.29897 12.864 4.74697V6.12997C7.14 6.12997 5.66 8.62197 5.66 10.997C5.66 13.373 7.393 14.56 9.515 14.56C10.924 14.56 12.224 13.783 12.945 13.196C13.0466 13.1099 13.176 13.0639 13.3091 13.0665C13.4422 13.069 13.5698 13.1201 13.668 13.21L14.725 14.232C14.8168 14.3208 14.9391 14.3712 15.0669 14.3727C15.1947 14.3741 15.3181 14.3267 15.412 14.24ZM11.882 11.662C13.165 10.686 12.87 7.96297 12.87 7.96297C12.87 7.96297 10.458 7.80297 9.516 9.24997C9.002 10.04 9.168 11.112 9.791 11.662C10.31 12.12 11.183 12.194 11.882 11.662ZM20.831 15.035C20.676 14.859 19.963 14.92 19.278 14.978C18.598 15.036 17.946 15.091 17.894 14.911C17.789 14.55 21.059 13.713 21.867 14.369C22.57 14.939 20.755 18.304 20.255 18.033C20.155 17.979 20.305 17.572 20.487 17.07C20.761 16.319 21.113 15.354 20.831 15.035ZM11.007 17.348C6.48 17.348 3.236 15.78 1.56 14.97C0.858998 14.631 0.432998 14.425 0.301998 14.523C-0.139002 14.853 5.026 18.937 11.007 18.937C16.238 18.937 20.763 16.112 20.101 15.737C19.864 15.603 19.368 15.77 18.567 16.041C17.125 16.527 14.695 17.348 11.007 17.348Z" fill="white"/>
</svg>
