<svg width="23" height="23" viewBox="0 0 23 23" fill="none" xmlns="http://www.w3.org/2000/svg">
<path d="M17.7137 6.24691C17.6 6.24691 17.491 6.20176 17.4107 6.12139C17.3303 6.04101 17.2851 5.93201 17.2851 5.81834C17.2851 5.70468 17.3303 5.59567 17.4107 5.5153C17.491 5.43492 17.6 5.38977 17.7137 5.38977" stroke="white" stroke-width="1.71429" stroke-linecap="round" stroke-linejoin="round"/>
<path d="M17.7137 6.24691C17.8274 6.24691 17.9364 6.20176 18.0168 6.12139C18.0971 6.04101 18.1423 5.93201 18.1423 5.81834C18.1423 5.70468 18.0971 5.59567 18.0168 5.5153C17.9364 5.43492 17.8274 5.38977 17.7137 5.38977" stroke="white" stroke-width="1.71429" stroke-linecap="round" stroke-linejoin="round"/>
<path d="M1.47086 5.88174C1.47086 4.71191 1.93557 3.58999 2.76277 2.7628C3.58997 1.9356 4.71189 1.47089 5.88172 1.47089H17.6451C18.2244 1.47089 18.798 1.58498 19.3331 1.80664C19.8683 2.02831 20.3545 2.35321 20.7641 2.7628C21.1737 3.17238 21.4986 3.65863 21.7202 4.19378C21.9419 4.72893 22.056 5.3025 22.056 5.88174V17.6452C22.056 18.815 21.5913 19.9369 20.7641 20.7641C19.9369 21.5913 18.815 22.056 17.6451 22.056H5.88C4.71017 22.056 3.58825 21.5913 2.76106 20.7641C1.93386 19.9369 1.46915 18.815 1.46915 17.6452V5.88003L1.47086 5.88174Z" stroke="white" stroke-width="1.71429" stroke-linecap="round" stroke-linejoin="round"/>
<path d="M7.392 11.7635C7.392 12.3375 7.50507 12.906 7.72475 13.4363C7.94444 13.9667 8.26644 14.4486 8.67236 14.8545C9.07828 15.2604 9.56019 15.5824 10.0906 15.8021C10.6209 16.0218 11.1894 16.1349 11.7634 16.1349C12.3375 16.1349 12.9059 16.0218 13.4363 15.8021C13.9667 15.5824 14.4486 15.2604 14.8545 14.8545C15.2604 14.4486 15.5824 13.9667 15.8021 13.4363C16.0218 12.906 16.1349 12.3375 16.1349 11.7635C16.1349 10.6041 15.6743 9.49219 14.8545 8.67239C14.0347 7.85259 12.9228 7.39203 11.7634 7.39203C10.6041 7.39203 9.49216 7.85259 8.67236 8.67239C7.85256 9.49219 7.392 10.6041 7.392 11.7635Z" stroke="white" stroke-width="1.71429" stroke-linecap="round" stroke-linejoin="round"/>
</svg>
